# xmcd
#
# Track frame offsets: 
#        150
#        30930
#        52335
#        68947
#        85897
#        102542
#        117497
#        137615
#        157055
#        173965
#        191572
#
# Disc length: 2741 seconds
#
# Revision: 0
# Processed by: cddbd v1.5.2PL0 Copyright (c) Steve Scherf et al.
# Submitted via: ExactAudioCopy v1.0b3
#
DISCID=9e0ab30b
DTITLE=Anita Ward - Ring My Bell
DYEAR=2000
DGENRE=Disco
TTITLE0=Ring My Bell
TTITLE1=You Lied
TTITLE2=Spoiled By Your Love
TTITLE3=Sweet Splendour
TTITLE4=This Must Be Love
TTITLE5=Make Believe Lovers
TTITLE6=I'm Ready For Your Love
TTITLE7=I Won't Stop Loving You
TTITLE8=There's No Doubt About It
TTITLE9=If You Could Feel That Old Feeling Again
TTITLE10=Curtains Go Up
EXTD=
EXTT0=
EXTT1=
EXTT2=
EXTT3=
EXTT4=
EXTT5=
EXTT6=
EXTT7=
EXTT8=
EXTT9=
EXTT10=
PLAYORDER=
